<svg width="201" height="201" viewBox="0 0 201 201" fill="none" xmlns="http://www.w3.org/2000/svg">
<g id="AI&#229;&#138;&#160;&#232;&#189;&#189;&#229;&#138;&#168;&#230;&#149;&#136;">
<g id="&#233;&#157;&#162;&#232;&#137;&#178;" filter="url(#filter0_i_24308_151670)">
<circle cx="100.5" cy="100.738" r="70.3704" fill="url(#paint0_linear_24308_151670)"/>
</g>
<g id="AI &#229;&#138;&#169;&#230;&#137;&#139;-&#230;&#143;&#146;&#231;&#148;&#187;">
<g id="AI &#229;&#138;&#169;&#230;&#137;&#139;-&#229;&#186;&#149;&#230;&#157;&#191;">
<g id="&#229;&#186;&#149;&#233;&#131;&#168;&#232;&#131;&#140;&#230;&#153;&#175;">
<g clip-path="url(#clip0_24308_151670)">
<circle id="&#232;&#131;&#140;&#230;&#157;&#191;" cx="100.5" cy="107.401" r="44.4444" fill="url(#paint1_linear_24308_151670)"/>
<g id="&#229;&#176;&#143;&#232;&#186;&#171;&#229;&#173;&#144;" filter="url(#filter1_ii_24308_151670)">
<path d="M89.3213 139.627C91.6449 137.932 94.4464 137.02 97.3222 137.02H102.459C105.082 137.02 107.648 137.779 109.848 139.206L117.911 144.435V144.435C122.906 148.633 119.937 156.778 113.414 156.778H87.3094C80.7987 156.778 77.7935 148.685 82.7262 144.435V144.435L89.3213 139.627Z" fill="url(#paint2_linear_24308_151670)"/>
</g>
</g>
</g>
<g id="&#229;&#164;&#167;&#229;&#164;&#180;">
<g id="&#230;&#149;&#180;&#228;&#189;&#147;&#229;&#164;&#180;&#233;&#131;&#168;" filter="url(#filter2_i_24308_151670)">
<path d="M100.537 58.0117C101.911 58.0117 103.02 59.1332 103.006 60.5068L102.943 66.4941C107.614 66.9968 111.78 68.92 114.854 71.752C135.153 73.3383 151.116 90.3116 151.116 111.002C151.116 127.31 137.896 140.53 121.588 140.53H79.4473C63.1189 140.53 49.8818 127.293 49.8818 110.965C49.882 90.2188 65.9052 73.2285 86.2334 71.6641C89.2876 68.8887 93.3997 67.0038 98.0049 66.499L98.0684 60.4551C98.0825 59.1017 99.1837 58.0118 100.537 58.0117Z" fill="url(#paint3_linear_24308_151670)"/>
</g>
<g id="&#233;&#161;&#182;&#233;&#131;&#168;&#229;&#176;&#143;&#231;&#130;&#185;" filter="url(#filter3_i_24308_151670)">
<circle cx="100.499" cy="55.8682" r="6.17284" fill="url(#paint4_linear_24308_151670)"/>
</g>
</g>
<g id="&#231;&#156;&#188;&#231;&#157;&#155;&#230;&#161;&#134;">
<g filter="url(#filter4_i_24308_151670)">
<path d="M78.2312 124.67C78.4031 124.683 79.7077 124.686 81.3244 124.686C85.9029 124.684 90.4208 123.609 94.5203 121.57L98.2993 119.691C99.6844 119.002 101.312 119.002 102.697 119.691L106.476 121.57C110.576 123.609 115.094 124.684 119.672 124.686C121.289 124.686 122.594 124.683 122.765 124.67C132.408 123.899 140.005 115.323 140.005 104.933C140.005 94.5422 132.408 85.9665 122.765 85.1955C122.291 85.1599 121.812 85.1955 121.329 85.1955H79.6678C79.1845 85.1955 78.7054 85.1599 78.2312 85.1955C68.5883 85.9665 60.9922 94.5422 60.9922 104.933C60.9922 115.323 68.5883 123.899 78.2312 124.67Z" fill="url(#paint5_linear_24308_151670)"/>
</g>
<path d="M121.329 86.4297C121.943 86.4297 122.253 86.3943 122.673 86.4258C131.615 87.1439 138.769 95.1301 138.77 104.933C138.77 114.735 131.615 122.72 122.673 123.438C122.667 123.439 122.595 123.441 122.422 123.443C122.255 123.445 122.029 123.447 121.755 123.448C121.208 123.451 120.48 123.452 119.673 123.451C115.287 123.449 110.957 122.42 107.026 120.465L103.247 118.585C101.516 117.724 99.4812 117.724 97.75 118.585L93.9707 120.465C90.04 122.42 85.7098 123.449 81.3242 123.451C80.5164 123.452 79.7879 123.451 79.2412 123.448C78.9677 123.447 78.742 123.445 78.5752 123.443C78.3934 123.441 78.3236 123.438 78.3232 123.438H78.3223C69.3804 122.719 62.2266 114.735 62.2266 104.933C62.2266 95.1307 69.3804 87.1447 78.3223 86.4258L78.3232 86.4268C78.7435 86.3952 79.0543 86.4297 79.668 86.4297H121.329Z" stroke="url(#paint6_linear_24308_151670)" stroke-width="2.46914" stroke-linejoin="round"/>
</g>
<g id="&#229;&#152;&#180;&#229;&#183;&#180;" filter="url(#filter5_i_24308_151670)">
<path fill-rule="evenodd" clip-rule="evenodd" d="M100.288 129.544C101.9 129.544 103.399 129.288 104.69 128.851C105.336 128.632 106.071 128.89 106.362 129.507L106.396 129.581C106.687 130.197 106.425 130.938 105.784 131.17C104.144 131.764 102.267 132.094 100.288 132.094C98.4821 132.094 96.7629 131.819 95.2316 131.321C94.5832 131.11 94.2937 130.38 94.5621 129.753L94.5941 129.678C94.8625 129.051 95.5874 128.766 96.2397 128.965C97.4484 129.332 98.8219 129.544 100.288 129.544Z" fill="url(#paint7_linear_24308_151670)"/>
</g>
</g>
<g id="AI&#229;&#138;&#169;&#230;&#137;&#139;&#231;&#156;&#188;&#231;&#157;&#155;/14">
<g id="&#229;&#183;&#166;&#231;&#156;&#188;" filter="url(#filter6_d_24308_151670)">
<path d="M77.9004 101.968C77.9004 99.5133 79.8902 97.5234 82.3448 97.5234V97.5234C84.7994 97.5234 86.7893 99.5133 86.7893 101.968V107.894C86.7893 110.348 84.7994 112.338 82.3448 112.338V112.338C79.8902 112.338 77.9004 110.348 77.9004 107.894V101.968Z" fill="url(#paint8_radial_24308_151670)"/>
</g>
<g id="&#229;&#143;&#179;&#231;&#156;&#188;" filter="url(#filter7_d_24308_151670)">
<rect x="113.456" y="97.5234" width="8.88889" height="14.8148" rx="4.44444" fill="url(#paint9_radial_24308_151670)"/>
</g>
</g>
</g>
<g id="&#231;&#186;&#191;&#230;&#157;&#161;1" filter="url(#filter8_i_24308_151670)">
<path d="M100.5 12.5898C123.682 12.5898 145.914 21.7988 162.306 38.1909" stroke="url(#paint10_linear_24308_151670)" stroke-width="4.44444"/>
</g>
<g id="&#229;&#176;&#143;&#231;&#129;&#171;&#231;&#174;&#173;&#232;&#189;&#172;&#229;&#156;&#136;&#228;&#184;&#138;" clip-path="url(#clip1_24308_151670)">
<path id="Vector" d="M100.998 16.0497L100.998 9.13219C102.561 9.78549 103.803 11.0281 104.456 12.591C103.803 14.1538 102.561 15.3964 100.998 16.0497ZM95.8668 6.66503L98.1068 4.68972L100.01 4.68972L100.01 20.4922L98.1068 20.4922L95.8668 18.5169L90.1335 18.5169C86.6935 18.5169 83.7661 16.0438 82.6816 12.591C83.7661 9.13811 86.6935 6.66503 90.1335 6.66503L95.8668 6.66503ZM92.1088 12.591C92.1088 12.3316 92.0577 12.0747 91.9584 11.835C91.8592 11.5954 91.7137 11.3776 91.5302 11.1942C91.3468 11.0108 91.1291 10.8653 90.8894 10.766C90.6498 10.6667 90.3929 10.6156 90.1335 10.6156C89.8741 10.6156 89.6172 10.6667 89.3776 10.766C89.1379 10.8653 88.9202 11.0108 88.7367 11.1942C88.5533 11.3776 88.4078 11.5954 88.3085 11.835C88.2093 12.0747 88.1582 12.3316 88.1582 12.591C88.1582 13.1148 88.3663 13.6173 88.7367 13.9877C89.1072 14.3581 89.6096 14.5663 90.1335 14.5663C90.6574 14.5663 91.1598 14.3581 91.5302 13.9877C91.9007 13.6173 92.1088 13.1148 92.1088 12.591Z" fill="url(#paint11_linear_24308_151670)"/>
</g>
</g>
<defs>
<filter id="filter0_i_24308_151670" x="30.1299" y="30.3672" width="140.741" height="140.742" filterUnits="userSpaceOnUse" color-interpolation-filters="sRGB">
<feFlood flood-opacity="0" result="BackgroundImageFix"/>
<feBlend mode="normal" in="SourceGraphic" in2="BackgroundImageFix" result="shape"/>
<feColorMatrix in="SourceAlpha" type="matrix" values="0 0 0 0 0 0 0 0 0 0 0 0 0 0 0 0 0 0 127 0" result="hardAlpha"/>
<feOffset/>
<feGaussianBlur stdDeviation="1.48148"/>
<feComposite in2="hardAlpha" operator="arithmetic" k2="-1" k3="1"/>
<feColorMatrix type="matrix" values="0 0 0 0 1 0 0 0 0 1 0 0 0 0 1 0 0 0 0.25 0"/>
<feBlend mode="normal" in2="shape" result="effect1_innerShadow_24308_151670"/>
</filter>
<filter id="filter1_ii_24308_151670" x="80.2734" y="137.02" width="40.1445" height="24.6961" filterUnits="userSpaceOnUse" color-interpolation-filters="sRGB">
<feFlood flood-opacity="0" result="BackgroundImageFix"/>
<feBlend mode="normal" in="SourceGraphic" in2="BackgroundImageFix" result="shape"/>
<feColorMatrix in="SourceAlpha" type="matrix" values="0 0 0 0 0 0 0 0 0 0 0 0 0 0 0 0 0 0 127 0" result="hardAlpha"/>
<feOffset dy="4.93827"/>
<feGaussianBlur stdDeviation="2.46914"/>
<feComposite in2="hardAlpha" operator="arithmetic" k2="-1" k3="1"/>
<feColorMatrix type="matrix" values="0 0 0 0 1 0 0 0 0 1 0 0 0 0 1 0 0 0 0.25 0"/>
<feBlend mode="normal" in2="shape" result="effect1_innerShadow_24308_151670"/>
<feColorMatrix in="SourceAlpha" type="matrix" values="0 0 0 0 0 0 0 0 0 0 0 0 0 0 0 0 0 0 127 0" result="hardAlpha"/>
<feOffset dy="4.93827"/>
<feGaussianBlur stdDeviation="2.46914"/>
<feComposite in2="hardAlpha" operator="arithmetic" k2="-1" k3="1"/>
<feColorMatrix type="matrix" values="0 0 0 0 1 0 0 0 0 0.161613 0 0 0 0 0.161613 0 0 0 0.37 0"/>
<feBlend mode="normal" in2="effect1_innerShadow_24308_151670" result="effect2_innerShadow_24308_151670"/>
</filter>
<filter id="filter2_i_24308_151670" x="49.8818" y="56.7772" width="101.234" height="83.7541" filterUnits="userSpaceOnUse" color-interpolation-filters="sRGB">
<feFlood flood-opacity="0" result="BackgroundImageFix"/>
<feBlend mode="normal" in="SourceGraphic" in2="BackgroundImageFix" result="shape"/>
<feColorMatrix in="SourceAlpha" type="matrix" values="0 0 0 0 0 0 0 0 0 0 0 0 0 0 0 0 0 0 127 0" result="hardAlpha"/>
<feOffset dy="-1.23457"/>
<feGaussianBlur stdDeviation="3.7037"/>
<feComposite in2="hardAlpha" operator="arithmetic" k2="-1" k3="1"/>
<feColorMatrix type="matrix" values="0 0 0 0 1 0 0 0 0 0.907127 0 0 0 0 0.907127 0 0 0 1 0"/>
<feBlend mode="normal" in2="shape" result="effect1_innerShadow_24308_151670"/>
</filter>
<filter id="filter3_i_24308_151670" x="94.3262" y="48.4607" width="12.3457" height="13.5783" filterUnits="userSpaceOnUse" color-interpolation-filters="sRGB">
<feFlood flood-opacity="0" result="BackgroundImageFix"/>
<feBlend mode="normal" in="SourceGraphic" in2="BackgroundImageFix" result="shape"/>
<feColorMatrix in="SourceAlpha" type="matrix" values="0 0 0 0 0 0 0 0 0 0 0 0 0 0 0 0 0 0 127 0" result="hardAlpha"/>
<feOffset dy="-1.23457"/>
<feGaussianBlur stdDeviation="1.23457"/>
<feComposite in2="hardAlpha" operator="arithmetic" k2="-1" k3="1"/>
<feColorMatrix type="matrix" values="0 0 0 0 1 0 0 0 0 0.80616 0 0 0 0 0.804964 0 0 0 1 0"/>
<feBlend mode="normal" in2="shape" result="effect1_innerShadow_24308_151670"/>
</filter>
<filter id="filter4_i_24308_151670" x="58.5231" y="82.7106" width="81.4818" height="41.9769" filterUnits="userSpaceOnUse" color-interpolation-filters="sRGB">
<feFlood flood-opacity="0" result="BackgroundImageFix"/>
<feBlend mode="normal" in="SourceGraphic" in2="BackgroundImageFix" result="shape"/>
<feColorMatrix in="SourceAlpha" type="matrix" values="0 0 0 0 0 0 0 0 0 0 0 0 0 0 0 0 0 0 127 0" result="hardAlpha"/>
<feOffset dx="-2.46914" dy="-2.46914"/>
<feGaussianBlur stdDeviation="4.93827"/>
<feComposite in2="hardAlpha" operator="arithmetic" k2="-1" k3="1"/>
<feColorMatrix type="matrix" values="0 0 0 0 1 0 0 0 0 1 0 0 0 0 1 0 0 0 0.8 0"/>
<feBlend mode="normal" in2="shape" result="effect1_innerShadow_24308_151670"/>
</filter>
<filter id="filter5_i_24308_151670" x="94.4619" y="128.773" width="12.0527" height="3.32031" filterUnits="userSpaceOnUse" color-interpolation-filters="sRGB">
<feFlood flood-opacity="0" result="BackgroundImageFix"/>
<feBlend mode="normal" in="SourceGraphic" in2="BackgroundImageFix" result="shape"/>
<feColorMatrix in="SourceAlpha" type="matrix" values="0 0 0 0 0 0 0 0 0 0 0 0 0 0 0 0 0 0 127 0" result="hardAlpha"/>
<feOffset/>
<feGaussianBlur stdDeviation="0.617284"/>
<feComposite in2="hardAlpha" operator="arithmetic" k2="-1" k3="1"/>
<feColorMatrix type="matrix" values="0 0 0 0 1 0 0 0 0 1 0 0 0 0 1 0 0 0 0.63 0"/>
<feBlend mode="normal" in2="shape" result="effect1_innerShadow_24308_151670"/>
</filter>
<filter id="filter6_d_24308_151670" x="72.9621" y="92.5852" width="18.7652" height="24.6929" filterUnits="userSpaceOnUse" color-interpolation-filters="sRGB">
<feFlood flood-opacity="0" result="BackgroundImageFix"/>
<feColorMatrix in="SourceAlpha" type="matrix" values="0 0 0 0 0 0 0 0 0 0 0 0 0 0 0 0 0 0 127 0" result="hardAlpha"/>
<feOffset/>
<feGaussianBlur stdDeviation="2.46914"/>
<feComposite in2="hardAlpha" operator="out"/>
<feColorMatrix type="matrix" values="0 0 0 0 1 0 0 0 0 0.899366 0 0 0 0 0.402488 0 0 0 0.8 0"/>
<feBlend mode="normal" in2="BackgroundImageFix" result="effect1_dropShadow_24308_151670"/>
<feBlend mode="normal" in="SourceGraphic" in2="effect1_dropShadow_24308_151670" result="shape"/>
</filter>
<filter id="filter7_d_24308_151670" x="107.283" y="91.3506" width="21.2344" height="27.1621" filterUnits="userSpaceOnUse" color-interpolation-filters="sRGB">
<feFlood flood-opacity="0" result="BackgroundImageFix"/>
<feColorMatrix in="SourceAlpha" type="matrix" values="0 0 0 0 0 0 0 0 0 0 0 0 0 0 0 0 0 0 127 0" result="hardAlpha"/>
<feMorphology radius="1.23457" operator="dilate" in="SourceAlpha" result="effect1_dropShadow_24308_151670"/>
<feOffset/>
<feGaussianBlur stdDeviation="2.46914"/>
<feComposite in2="hardAlpha" operator="out"/>
<feColorMatrix type="matrix" values="0 0 0 0 1 0 0 0 0 0.899366 0 0 0 0 0.402488 0 0 0 0.8 0"/>
<feBlend mode="normal" in2="BackgroundImageFix" result="effect1_dropShadow_24308_151670"/>
<feBlend mode="normal" in="SourceGraphic" in2="effect1_dropShadow_24308_151670" result="shape"/>
</filter>
<filter id="filter8_i_24308_151670" x="100.5" y="10.3672" width="63.3779" height="29.3945" filterUnits="userSpaceOnUse" color-interpolation-filters="sRGB">
<feFlood flood-opacity="0" result="BackgroundImageFix"/>
<feBlend mode="normal" in="SourceGraphic" in2="BackgroundImageFix" result="shape"/>
<feColorMatrix in="SourceAlpha" type="matrix" values="0 0 0 0 0 0 0 0 0 0 0 0 0 0 0 0 0 0 127 0" result="hardAlpha"/>
<feOffset/>
<feGaussianBlur stdDeviation="1.48148"/>
<feComposite in2="hardAlpha" operator="arithmetic" k2="-1" k3="1"/>
<feColorMatrix type="matrix" values="0 0 0 0 1 0 0 0 0 1 0 0 0 0 1 0 0 0 0.25 0"/>
<feBlend mode="normal" in2="shape" result="effect1_innerShadow_24308_151670"/>
</filter>
<linearGradient id="paint0_linear_24308_151670" x1="100.5" y1="30.3672" x2="100.5" y2="171.108" gradientUnits="userSpaceOnUse">
<stop stop-color="#FFF3F3"/>
<stop offset="1" stop-color="#FFF8F8"/>
</linearGradient>
<linearGradient id="paint1_linear_24308_151670" x1="100.5" y1="104.839" x2="100.5" y2="151.846" gradientUnits="userSpaceOnUse">
<stop stop-color="white" stop-opacity="0"/>
<stop offset="0.799489" stop-color="#FF5D5D"/>
<stop offset="1" stop-color="#B13333"/>
</linearGradient>
<linearGradient id="paint2_linear_24308_151670" x1="99.2637" y1="128.382" x2="99.2637" y2="165.419" gradientUnits="userSpaceOnUse">
<stop stop-color="#FFC0CB"/>
<stop offset="0.49" stop-color="#FFE7EB"/>
<stop offset="1" stop-color="#FFC7D1"/>
</linearGradient>
<linearGradient id="paint3_linear_24308_151670" x1="100.499" y1="140.53" x2="101.016" y2="61.495" gradientUnits="userSpaceOnUse">
<stop stop-color="#FFEDED"/>
<stop offset="1" stop-color="white"/>
</linearGradient>
<linearGradient id="paint4_linear_24308_151670" x1="105.727" y1="56.3091" x2="94.6578" y2="56.3091" gradientUnits="userSpaceOnUse">
<stop stop-color="#FFF8FA"/>
<stop offset="1" stop-color="#FFFCFD"/>
</linearGradient>
<linearGradient id="paint5_linear_24308_151670" x1="100.498" y1="85.1797" x2="100.498" y2="124.686" gradientUnits="userSpaceOnUse">
<stop stop-color="#CA3346"/>
<stop offset="1" stop-color="#F64040"/>
</linearGradient>
<linearGradient id="paint6_linear_24308_151670" x1="100.498" y1="85.1797" x2="100.498" y2="124.686" gradientUnits="userSpaceOnUse">
<stop stop-color="#FF9E9E"/>
<stop offset="0.495532" stop-color="#FFD69A"/>
<stop offset="1" stop-color="#FFBAE3"/>
</linearGradient>
<linearGradient id="paint7_linear_24308_151670" x1="100.431" y1="128.391" x2="99.966" y2="132.017" gradientUnits="userSpaceOnUse">
<stop stop-color="#E91A33"/>
<stop offset="1" stop-color="#FF7474"/>
</linearGradient>
<radialGradient id="paint8_radial_24308_151670" cx="0" cy="0" r="1" gradientUnits="userSpaceOnUse" gradientTransform="translate(81.994 104.931) rotate(-91.3205) scale(7.40937 4.11815)">
<stop stop-color="#FFFF93"/>
<stop offset="0.455" stop-color="#FFF6BA"/>
<stop offset="1" stop-color="#FFDA50"/>
</radialGradient>
<radialGradient id="paint9_radial_24308_151670" cx="0" cy="0" r="1" gradientUnits="userSpaceOnUse" gradientTransform="translate(117.9 104.931) rotate(-91.4337) scale(7.40973 4.47092)">
<stop stop-color="#FFFF93"/>
<stop offset="0.455" stop-color="#FFF6BA"/>
<stop offset="1" stop-color="#FFDA50"/>
</radialGradient>
<linearGradient id="paint10_linear_24308_151670" x1="100.5" y1="12.5898" x2="162.722" y2="38.5158" gradientUnits="userSpaceOnUse">
<stop stop-color="#FFD2CF"/>
<stop offset="1" stop-color="white" stop-opacity="0"/>
</linearGradient>
<linearGradient id="paint11_linear_24308_151670" x1="104.456" y1="12.591" x2="82.6816" y2="12.591" gradientUnits="userSpaceOnUse">
<stop stop-color="#FFDADA"/>
<stop offset="1" stop-color="#FF8372"/>
</linearGradient>
<clipPath id="clip0_24308_151670">
<rect x="56.0557" y="62.957" width="88.8889" height="88.8889" rx="44.4444" fill="white"/>
</clipPath>
<clipPath id="clip1_24308_151670">
<rect width="23.7037" height="23.7037" fill="white" transform="translate(81.2412 24.4414) rotate(-90)"/>
</clipPath>
</defs>
</svg>
